<?xml version="1.0" encoding="iso-8859-1"?>
<!-- Generator: Adobe Illustrator 18.1.1, SVG Export Plug-In . SVG Version: 6.00 Build 0)  -->
<svg xmlns="http://www.w3.org/2000/svg" xmlns:xlink="http://www.w3.org/1999/xlink" version="1.1" id="Capa_1" x="0px" y="0px" viewBox="0 0 59.431 59.431" style="enable-background:new 0 0 59.431 59.431;" xml:space="preserve" width="512px" height="512px">
<g>
	<g>
		<circle cx="35.871" cy="4.882" r="4.882" fill="#00acb3"/>
		<path d="M20.724,14.445c-1.087,0.483-2.131,0.983-3.117,1.478c-2.987,1.5-0.362,5.97,2.617,4.475    c0.175-0.087,0.353-0.167,0.528-0.252C20.664,18.26,20.628,16.354,20.724,14.445z" fill="#00acb3"/>
		<path d="M42.625,14.441c0.158-0.896-0.191-1.814-1.324-2.3c-4.305-1.849-9.231-1.45-13.921-0.139    c0.001,0.19-0.008,0.381-0.038,0.574c-0.244,1.572-0.295,2.927-0.264,4.546l8.794-0.313c0,0,1.232,0.324,0.314,0.762    c-1.293,0.057-9.826,0.468-9.826,0.468c-0.105-2.17-0.112-4.344,0.218-6.473c0.506-3.269-4.487-4.673-4.998-1.378    c-0.662,4.266-0.342,8.496-0.092,12.782c0.108,1.879,2.144,3.337,3.899,2.238c1.265-0.793,2.484-1.683,3.646-2.642l-0.004,1.675    l-0.036,18.065v14.33c0,1.543,1.128,2.795,2.715,2.795c1.585,0,2.873-1.252,2.873-2.795V36.154h2.536c0,4.799,0,15.752,0,20.552    c0,3.342,5.184,3.342,5.184,0c0-4.8,0-9.599,0-14.396C43.358,20.668,43.362,20.733,42.625,14.441z" fill="#00acb3"/>
	</g>
</g>
<g>
</g>
<g>
</g>
<g>
</g>
<g>
</g>
<g>
</g>
<g>
</g>
<g>
</g>
<g>
</g>
<g>
</g>
<g>
</g>
<g>
</g>
<g>
</g>
<g>
</g>
<g>
</g>
<g>
</g>
</svg>
